<svg id="Layer_1" data-name="Layer 1" xmlns="http://www.w3.org/2000/svg" viewBox="0 0 20.94 26.32"><defs><style>.cls-1{fill:#fcfbf9;}.cls-2{fill:#717f56;}.cls-3{fill:#f15922;}</style></defs><rect class="cls-1" width="20.94" height="26.32"/><path class="cls-2" d="M608.55,279.5s0,0,0,0h0c-1.16-.49-6.51.23-5.61,5.16l0,0h0v.05l0,0C607.78,286,608.94,280.7,608.55,279.5Z" transform="translate(-592.02 -277.51)"/><path class="cls-2" d="M602,286.13c-5.73-1.27-3.62-5.83-3.19-5.75a5.45,5.45,0,0,1,3.29,4v1.46" transform="translate(-592.02 -277.51)"/><polygon class="cls-2" points="9.52 15.46 7.46 12.63 5.84 11.6 6.3 10.88 8.05 12 10.21 14.96 9.52 15.46"/><path class="cls-2" d="M599.2,289.33c-5.23,1-5.12-3.55-4.74-3.63a4.93,4.93,0,0,1,4.18,2.13l.54,1.21" transform="translate(-592.02 -277.51)"/><path class="cls-2" d="M604.62,289c5.58,1.86,6.1-3.15,5.7-3.3a5.43,5.43,0,0,0-4.87,1.74l-.76,1.25" transform="translate(-592.02 -277.51)"/><polygon class="cls-2" points="10.29 14.37 9.62 13.84 11.25 11.77 13.96 10.28 14.37 11.03 11.81 12.43 10.29 14.37"/><polygon class="cls-2" points="10.38 26.32 9.53 26.32 9.53 8.16 10.76 6.71 11.41 7.26 10.38 8.47 10.38 26.32"/><path class="cls-2" d="M603.37,297.08c5-.62,3.52-4.66,3.16-4.62a4.61,4.61,0,0,0-3.1,3.12l-.12,1.23" transform="translate(-592.02 -277.51)"/><rect class="cls-2" x="601.27" y="297.38" width="3.33" height="0.85" transform="translate(-579.85 341.56) rotate(-54.82)"/><path class="cls-2" d="M600.85,296.19c-4.79-.6-3.4-4.49-3.05-4.46a4.47,4.47,0,0,1,3,3l.12,1.19" transform="translate(-592.02 -277.51)"/><rect class="cls-2" x="600.69" y="295.03" width="0.85" height="3" transform="matrix(0.8, -0.6, 0.6, 0.8, -649.19, 145.22)"/><circle class="cls-3" cx="11.87" cy="7.99" r="1.11"/><circle class="cls-3" cx="13.31" cy="12.32" r="1.11"/><circle class="cls-3" cx="8.7" cy="8.71" r="0.83"/><circle class="cls-3" cx="5.87" cy="12.43" r="0.89"/></svg>