<svg id="Layer_1" data-name="Layer 1" xmlns="http://www.w3.org/2000/svg" viewBox="0 0 20.94 26.32"><defs><style>.cls-1{fill:#fcfbf9;}.cls-2{fill:#717f56;}.cls-3{fill:#f15922;}</style></defs><rect class="cls-1" width="20.94" height="26.32"/><path class="cls-2" d="M712.77,229.82s0,0,0,0h0c-.62-.47-4-.86-4.29,2.23h0v0h0C711.18,233.57,712.8,230.59,712.77,229.82Z" transform="translate(-695.36 -227.28)"/><path class="cls-2" d="M703.3,233.61c-4.58.92-4.5-3.19-4.16-3.27a4.3,4.3,0,0,1,3.66,1.93l.48,1.08" transform="translate(-695.36 -227.28)"/><path class="cls-2" d="M706.78,232.84c-4.38-.34-3.29-3.94-3-3.92a4,4,0,0,1,2.85,2.61l.16,1.08" transform="translate(-695.36 -227.28)"/><polygon class="cls-2" points="9.6 15.84 7.88 12.41 4.9 10.92 5.28 10.16 8.52 11.78 10.36 15.46 9.6 15.84"/><path class="cls-2" d="M701.67,238.39c-4.16,1.5-4.65-2.26-4.35-2.38a4.08,4.08,0,0,1,3.7,1.23l.6.92" transform="translate(-695.36 -227.28)"/><path class="cls-2" d="M709.08,236.34c4.38,1.13,4.52-2.74,4.19-2.83a4.17,4.17,0,0,0-3.64,1.6l-.52,1" transform="translate(-695.36 -227.28)"/><path class="cls-2" d="M709.1,242.48c-.07,2.65,2.21,2.22,2.22,2a2.45,2.45,0,0,0-1.42-1.87l-.65-.16" transform="translate(-695.36 -227.28)"/><path class="cls-2" d="M710.16,241.71c3.52,1.95,4.51-1.35,4.25-1.51a3.76,3.76,0,0,0-3.5.56l-.67.74" transform="translate(-695.36 -227.28)"/><path class="cls-2" d="M707.51,247c2.72,1,3.08-1.43,2.88-1.52a2.71,2.71,0,0,0-2.44.77l-.4.6" transform="translate(-695.36 -227.28)"/><polygon class="cls-2" points="10.31 13.13 9.61 12.64 11.23 10.34 15.4 7.52 15.88 8.23 11.84 10.96 10.31 13.13"/><polygon class="cls-2" points="10.4 26.32 9.55 26.32 9.55 8.44 10.99 5.58 14.07 3.52 14.55 4.23 11.65 6.17 10.4 8.64 10.4 26.32"/><path class="cls-2" d="M701.23,238.55c2.16-1.31.66-2.87.5-2.78a2.35,2.35,0,0,0-.78,2.08l.2.59" transform="translate(-695.36 -227.28)"/><path class="cls-2" d="M702.43,238.52c1.94.4,1.92-1.29,1.78-1.33a1.84,1.84,0,0,0-1.56.78l-.21.44" transform="translate(-695.36 -227.28)"/><path class="cls-2" d="M707.52,242.6c3.45-.46,2.43-3.26,2.17-3.23a3.23,3.23,0,0,0-2.14,2.19l-.08.86" transform="translate(-695.36 -227.28)"/><polygon class="cls-2" points="10.23 17.54 9.69 16.89 11.18 15.63 13.71 14.25 16.43 13.57 16.64 14.4 14.02 15.05 11.66 16.34 10.23 17.54"/><path class="cls-2" d="M701.94,243.83c-4.05,1.14-4.26-2.46-4-2.55a3.89,3.89,0,0,1,3.42,1.41l.5.91" transform="translate(-695.36 -227.28)"/><path class="cls-2" d="M702.49,245.65c-1.56,2.84-3.64,1-3.53.8a3,3,0,0,1,2.62-1.12l.77.22" transform="translate(-695.36 -227.28)"/><polygon class="cls-2" points="9.66 20.81 7.88 18.45 5.68 16.42 6.26 15.8 8.51 17.87 10.34 20.29 9.66 20.81"/><polygon class="cls-2" points="9.67 8.85 8.22 7.5 6.89 6.05 7.51 5.48 8.83 6.91 10.25 8.23 9.67 8.85"/><rect class="cls-2" x="708.92" y="242.13" width="0.85" height="1.49" transform="translate(-641.07 380.37) rotate(-48.01)"/><rect class="cls-2" x="701.08" y="245.31" width="2.51" height="0.85" transform="translate(-733.71 -52.6) rotate(-13.8)"/><polygon class="cls-2" points="10.19 22.58 9.54 22.03 11.36 19.88 12.87 18.96 13.31 19.68 11.92 20.54 10.19 22.58"/><circle class="cls-3" cx="14.2" cy="5.43" r="1.33"/><circle class="cls-3" cx="6.42" cy="6.76" r="1.44"/><circle class="cls-3" cx="5.64" cy="12.32" r="1.44"/><circle class="cls-3" cx="7.09" cy="19.54" r="1"/><circle class="cls-3" cx="8.03" cy="11.93" r="0.83"/><circle class="cls-3" cx="5.7" cy="16.93" r="0.83"/><circle class="cls-3" cx="12.03" cy="6.38" r="0.94"/><circle class="cls-3" cx="10.28" cy="5.57" r="0.75"/><circle class="cls-3" cx="15.95" cy="15.07" r="1.03"/><circle class="cls-3" cx="12.81" cy="16.15" r="0.94"/><circle class="cls-3" cx="12.75" cy="20.54" r="1"/><path class="cls-2" d="M705.21,244.41c-3.79,0-3.12-3.15-2.84-3.16a3.54,3.54,0,0,1,2.65,2l.22.92" transform="translate(-695.36 -227.28)"/><path class="cls-2" d="M705.61,237.31c3,0,2.51-2.53,2.28-2.54a2.81,2.81,0,0,0-2.12,1.64l-.18.73" transform="translate(-695.36 -227.28)"/><path class="cls-2" d="M705.58,241.33c2.25.16,2-1.75,1.8-1.77a2.1,2.1,0,0,0-1.64,1.12l-.16.53" transform="translate(-695.36 -227.28)"/><path class="cls-2" d="M705.54,246.18c2.24.26,2.05-1.66,1.88-1.69a2.1,2.1,0,0,0-1.69,1l-.19.52" transform="translate(-695.36 -227.28)"/><path class="cls-2" d="M709.83,236.39c.38,3.38,3.14,2.44,3.12,2.19a3.17,3.17,0,0,0-2.11-2.14l-.83-.1" transform="translate(-695.36 -227.28)"/><circle class="cls-3" cx="9.09" cy="16.99" r="0.78"/><circle class="cls-3" cx="13.92" cy="10.38" r="1.28"/><circle class="cls-3" cx="10.73" cy="10.13" r="0.75"/><circle class="cls-3" cx="10.73" cy="14.24" r="0.86"/><circle class="cls-3" cx="10.7" cy="19.26" r="0.72"/></svg>