<svg id="Layer_1" data-name="Layer 1" xmlns="http://www.w3.org/2000/svg" viewBox="0 0 20.94 26.32"><defs><style>.cls-1{fill:#fcfbf9;}.cls-2{fill:#717f56;}</style></defs><rect class="cls-1" width="20.94" height="26.32"/><path class="cls-2" d="M514.12,287.74s0,0,0,0h0c-1-.38-5.6.45-4.64,4.66l0,0h0v0l0,0C513.7,293.35,514.5,288.76,514.12,287.74Z" transform="translate(-498.2 -279.77)"/><path class="cls-2" d="M508.19,294.07c-5-1.11-3.16-5.1-2.79-5a4.75,4.75,0,0,1,2.87,3.49v1.27" transform="translate(-498.2 -279.77)"/><polygon class="cls-2" points="10.38 26.32 9.53 26.32 9.53 13.81 11.89 11.36 12.51 11.95 10.38 14.16 10.38 26.32"/><path class="cls-2" d="M510.28,295.75c4.08.82,4-2.75,3.72-2.82a3.88,3.88,0,0,0-3.28,1.65l-.42.94" transform="translate(-498.2 -279.77)"/><polygon class="cls-2" points="10.37 20.15 9.58 19.82 10.95 16.52 12.9 14.57 13.5 15.18 11.67 17 10.37 20.15"/><path class="cls-2" d="M507,297.9c-4.79-.6-3.4-4.49-3-4.46a4.45,4.45,0,0,1,3,3l.12,1.18" transform="translate(-498.2 -279.77)"/><rect class="cls-2" x="506.93" y="297.11" width="0.85" height="2.93" transform="translate(-577.38 69.08) rotate(-35.38)"/></svg>