<svg id="Layer_1" data-name="Layer 1" xmlns="http://www.w3.org/2000/svg" viewBox="0 0 20.86 26.32"><defs><style>.cls-1{fill:#fcfbf9;}.cls-2{fill:#717f56;}</style></defs><rect class="cls-1" width="20.86" height="26.22"/><path class="cls-2" d="M629.25,356.82c4.06.2,3.48-3.23,3.18-3.26a3.76,3.76,0,0,0-2.92,2.07l-.27,1" transform="translate(-618.43 -336.8)"/><path class="cls-2" d="M628.36,350.92a4.91,4.91,0,0,1,4-2.43c.39.06,1.77,4.69-3.49,4.07" transform="translate(-618.43 -336.8)"/><path class="cls-2" d="M628.53,350.92a4.93,4.93,0,0,0-4-2.43c-.38.06-1.77,4.69,3.5,4.07" transform="translate(-618.43 -336.8)"/><line class="cls-2" x1="9.99" y1="14.1" x2="10.03" y2="26.32"/><polygon class="cls-2" points="9.61 26.32 9.57 14.11 10.41 14.1 10.46 26.32 9.61 26.32"/><rect class="cls-2" x="628.11" y="356.43" width="2.28" height="0.85" transform="translate(-682.39 226.85) rotate(-46.17)"/><path class="cls-2" d="M627.65,359c-3.12.21-2.72-2.43-2.49-2.45a2.9,2.9,0,0,1,2.27,1.55l.22.73" transform="translate(-618.43 -336.8)"/><rect class="cls-2" x="627.28" y="358.03" width="0.85" height="2.28" transform="translate(-692.28 197.98) rotate(-43.83)"/></svg>